<svg width="22" height="21" fill="none" xmlns="http://www.w3.org/2000/svg"><path d="M1.581 9.946a3.297 3.297 0 00-.66 1.98c0 1.144.635 2.227 1.656 2.83a1.7 1.7 0 00.867.238h6.062l-.152 3.132a2.74 2.74 0 001.643 2.654c.338.146.703.221 1.072.22a2.943 2.943 0 002.826-2.169l2.171-7.925h3.269a.811.811 0 00.809-.815V.815a.811.811 0 00-.81-.815H5.136c-.232 0-.46.046-.67.138a3.277 3.277 0 00-1.979 3.017c0 .32.046.637.137.943A3.297 3.297 0 002.1 7.02 3.297 3.297 0 001.44 9c.006.321.051.64.142.946zm17.743-8.111v7.237h-2.048V1.835h2.048zM3.237 10.83l.553-.484-.351-.647a1.46 1.46 0 01.321-1.791l.554-.485-.352-.647a1.46 1.46 0 01.321-1.791l.554-.485-.351-.647a1.441 1.441 0 01-.175-.696c0-.57.334-1.085.85-1.32h10.497v7.316l-2.515 9.187a1.123 1.123 0 01-.396.591 1.11 1.11 0 01-.67.232.883.883 0 01-.534-.171.908.908 0 01-.369-.777l.243-5.056H3.469c-.45-.278-.728-.747-.728-1.233 0-.42.182-.818.496-1.096z" fill="#FF5E5B"/></svg>