<svg width="20" height="21" fill="none" xmlns="http://www.w3.org/2000/svg"><path d="M19.273 11.054a3.339 3.339 0 00.649-1.98c0-1.144-.625-2.227-1.63-2.83a1.652 1.652 0 00-.852-.238h-5.964l.15-3.132a2.767 2.767 0 00-.734-2.023 2.652 2.652 0 00-.883-.631A2.596 2.596 0 008.955 0C7.66 0 6.518.892 6.175 2.169l-2.137 7.925H.823a.805.805 0 00-.796.815v9.276c0 .45.355.815.796.815h14.953c.229 0 .453-.046.659-.138 1.184-.517 1.947-1.702 1.947-3.017 0-.32-.045-.637-.134-.943a3.362 3.362 0 00.515-2.922c.417-.566.649-1.26.649-1.98a3.558 3.558 0 00-.14-.946zM1.817 19.165v-7.237h2.015v7.237H1.817zm15.827-8.995l-.545.484.346.647c.114.214.173.453.171.696 0 .42-.179.82-.487 1.096l-.545.484.346.647a1.475 1.475 0 01-.316 1.792l-.544.484.345.647c.114.213.173.453.172.696a1.45 1.45 0 01-.836 1.32H5.423v-7.316L7.898 2.66c.064-.235.2-.443.39-.591.19-.149.42-.23.66-.232a.86.86 0 01.524.171.914.914 0 01.363.777l-.239 5.056h7.819c.443.278.716.747.716 1.233 0 .42-.179.818-.487 1.096z" fill="#713DF2"/></svg>