<svg width="110" height="39" fill="none" xmlns="http://www.w3.org/2000/svg"><path d="M47.817 34.308h4.618c3.237 0 5.456-1.89 5.456-4.9 0-3.01-2.219-4.9-5.456-4.9h-4.618v9.8zm2.763-2.212V26.72h1.744c1.66 0 2.776.994 2.776 2.688 0 1.694-1.116 2.688-2.776 2.688H50.58zm14.526 2.408c3.126 0 5.428-2.156 5.428-5.096s-2.302-5.096-5.428-5.096c-3.125 0-5.427 2.156-5.427 5.096s2.302 5.096 5.427 5.096zm0-2.296c-1.478 0-2.637-1.106-2.637-2.8 0-1.694 1.158-2.8 2.637-2.8 1.48 0 2.638 1.106 2.638 2.8 0 1.694-1.159 2.8-2.638 2.8zm7.712 2.1h7.423V32.11h-4.66v-7.602h-2.763v9.8zm9.353 0h2.763v-9.8H82.17v9.8zm12.151-9.8v5.222l-4.311-5.222h-2.275v9.8h2.707v-5.222l4.311 5.222h2.275v-9.8h-2.707zm12.804 9.8H110l-4.325-9.8h-2.721l-4.312 9.8h2.819l.768-1.904h4.129l.768 1.904zm-4.088-3.948l1.255-3.136 1.256 3.136h-2.511zM47.865 18h4.844c3.396 0 5.723-1.983 5.723-5.14 0-3.157-2.327-5.14-5.723-5.14h-4.844V18zm2.898-2.32v-5.64h1.83c1.74 0 2.912 1.043 2.912 2.82s-1.171 2.82-2.913 2.82h-1.83zM59.956 18h2.898V7.72h-2.898V18zm11.824-2.54a3.67 3.67 0 01-1.566.337c-1.727 0-2.898-1.204-2.898-2.937 0-1.777 1.17-2.937 2.927-2.937.98 0 1.785.367 2.488 1.146l1.844-1.675c-1.01-1.219-2.561-1.88-4.478-1.88-3.323 0-5.708 2.218-5.708 5.346s2.385 5.346 5.649 5.346c1.493 0 3.117-.456 4.303-1.307v-4.26H71.78v2.82zM76.178 18h2.898V7.72h-2.898V18zm7.14 0h2.898v-7.974h3.132V7.72h-9.176v2.306h3.146V18zm14.264 0h3.015L96.06 7.72h-2.854L88.684 18h2.956l.805-1.997h4.332L97.582 18zm-4.288-4.141l1.317-3.29 1.317 3.29h-2.634zM101.418 18h7.787v-2.306h-4.889V7.72h-2.898V18z" fill="#713DF2"/><path d="M12.956 0h11.959c7.155 0 12.956 5.82 12.956 13s-5.8 13-12.956 13h-11.96V0z" fill="#B89EF9"/><path d="M0 13h11.96c7.155 0 12.955 5.82 12.955 13s-5.8 13-12.956 13H0V13z" fill="#713DF2"/></svg>