<svg width="112" height="39" fill="none" xmlns="http://www.w3.org/2000/svg"><g clip-path="url(#clip0)"><path d="M0 13h12c7.18 0 13 5.82 13 13s-5.82 13-13 13H0V13z" fill="#671090"/><path opacity=".5" d="M13 0h13c7.18 0 13 5.82 13 13s-5.82 13-13 13H13V0z" fill="#B53CEE"/><path d="M4.743 48.129l-.006-4.136h-.806l-1.55 2.57-1.575-2.57H0v4.136h.914v-2.428l1.238 1.99h.433l1.238-2.038.006 2.476h.914zm2.013-.768v-.957H8.71v-.745H6.756v-.898h2.212v-.768h-3.18v4.136h3.258v-.768h-2.29zm5.055.839c.733 0 1.34-.26 1.737-.739l-.625-.567a1.35 1.35 0 01-1.058.49c-.787 0-1.346-.543-1.346-1.323 0-.78.559-1.323 1.346-1.323.421 0 .776.165 1.058.484l.625-.567c-.396-.473-1.004-.733-1.73-.733-1.311 0-2.285.893-2.285 2.14 0 1.246.974 2.138 2.278 2.138zm5.547-4.207H13.71v.78h1.34v3.356h.963v-3.356h1.346v-.78zm2.561 4.207c1.322 0 2.302-.904 2.302-2.139 0-1.235-.98-2.139-2.302-2.139-1.329 0-2.303.91-2.303 2.14 0 1.228.974 2.138 2.303 2.138zm0-.815c-.752 0-1.317-.538-1.317-1.324s.565-1.323 1.317-1.323c.751 0 1.316.537 1.316 1.323 0 .786-.565 1.324-1.316 1.324zm8.509-3.392h-2.97v4.136h.968l-.006-3.356h2.002l.006-.78zm3.822 3.357v-3.357h-3.234l-.048 1.294c-.042 1.158-.18 2.044-.727 2.062h-.169l-.006 1.637h.902v-.857h2.97v.857h.901v-1.637h-.589zm-2.422-1.974l.018-.603h1.442v2.576h-1.881c.288-.337.384-1.093.42-1.973zm4.635 1.985v-.957h1.953v-.745h-1.953v-.898h2.212v-.768h-3.18v4.136h3.258v-.768h-2.29zm7.664-3.368v1.631h-1.911v-1.63h-.974v4.135h.974v-1.696h1.911v1.696h.974v-4.136h-.974zm5.251 4.136H48.4l-1.882-4.136h-.962l-1.875 4.136h.998l.372-.886h1.954l.373.886zm-2.014-1.613l.667-1.583.667 1.583h-1.334zm5.771-2.523v1.861c-.27.119-.583.184-.901.184-.583 0-.902-.29-.902-.857v-1.188h-.962v1.294c0 .999.62 1.548 1.75 1.548.312 0 .649-.065 1.015-.195v1.489h.962v-4.136h-.962zm2.008 4.136h.92l2.008-2.688v2.688h.962v-4.136h-.914l-2.008 2.694v-2.694h-.968v4.136zm7.823-4.136v1.631h-1.912v-1.63h-.974v4.135h.974v-1.696h1.912v1.696h.974v-4.136h-.974zm5.25 4.136h1.022l-1.882-4.136h-.961l-1.876 4.136h.998l.373-.886h1.953l.373.886zm-2.014-1.613l.668-1.583.667 1.583h-1.335zm4.562.845v-.957h1.954v-.745h-1.954v-.898h2.212v-.768h-3.18v4.136h3.258v-.768h-2.29zm6.293-3.368h-3.649v.78h1.34v3.356h.962v-3.356h1.347v-.78zM77.6 48.2c.733 0 1.34-.26 1.737-.739l-.626-.567a1.35 1.35 0 01-1.058.49c-.787 0-1.346-.543-1.346-1.323 0-.78.559-1.323 1.346-1.323.421 0 .776.165 1.058.484l.626-.567c-.397-.473-1.004-.733-1.732-.733-1.31 0-2.284.893-2.284 2.14 0 1.246.974 2.138 2.278 2.138zm3.834-4.207c-1.112 0-1.815.58-1.815 1.542 0 .65.318 1.123.883 1.347l-.877 1.247h1.028l.745-1.099h.89v1.099h.962v-4.136h-1.816zm.024.78h.83v1.5h-.854c-.547 0-.83-.27-.83-.75 0-.496.301-.75.854-.75zm4.548 3.356h1.996c1.082 0 1.701-.478 1.701-1.306 0-.791-.547-1.217-1.563-1.217h-1.166v-.85h2.429v-.763h-3.397v4.136zm.968-.709v-1.11h.974c.51 0 .77.177.77.543 0 .372-.271.567-.77.567h-.974zm3.47.709h.92l2.008-2.688v2.688h.962v-4.136h-.914l-2.008 2.694v-2.694h-.968v4.136zm7.33-2.156c.373-.16.607-.479.607-.88 0-.751-.841-1.188-1.815-1.188a3.22 3.22 0 00-1.443.337l.294.744a2.392 2.392 0 011.13-.295c.475 0 .848.177.848.514 0 .271-.228.443-.625.443h-.956v.72h1.028c.439 0 .728.154.728.467 0 .384-.451.585-1.004.585a2.53 2.53 0 01-1.263-.337l-.3.686a3.441 3.441 0 001.677.43c1.01 0 1.875-.448 1.875-1.228 0-.467-.294-.833-.781-.998zm4.438-1.98v1.631H100.3v-1.63h-.974v4.135h.974v-1.696h1.912v1.696h.974v-4.136h-.974zm2.996 3.368v-.957h1.953v-.745h-1.953v-.898h2.212v-.768h-3.18v4.136h3.258v-.768h-2.29zm5.055.839c.733 0 1.34-.26 1.737-.739l-.625-.567a1.35 1.35 0 01-1.058.49c-.788 0-1.347-.543-1.347-1.323 0-.78.559-1.323 1.347-1.323.421 0 .775.165 1.058.484l.625-.567c-.397-.473-1.004-.733-1.731-.733-1.311 0-2.285.893-2.285 2.14 0 1.246.974 2.138 2.279 2.138zM47.866 34.557h4.673c3.276 0 5.52-1.873 5.52-4.857 0-2.983-2.244-4.857-5.52-4.857h-4.673v9.714zm2.795-2.192v-5.329h1.765c1.68 0 2.81.985 2.81 2.664 0 1.68-1.13 2.665-2.81 2.665h-1.765zm14.701 2.387c3.163 0 5.492-2.138 5.492-5.052 0-2.914-2.33-5.05-5.492-5.05-3.163 0-5.492 2.136-5.492 5.05 0 2.915 2.33 5.052 5.492 5.052zm0-2.276c-1.497 0-2.669-1.097-2.669-2.776 0-1.679 1.172-2.775 2.669-2.775s2.669 1.096 2.669 2.775c0 1.68-1.172 2.776-2.67 2.776zm7.804 2.081h7.511V32.38h-4.716v-7.535h-2.795v9.713zm9.464 0h2.796v-9.714H82.63v9.714zm12.297-9.714v5.177l-4.363-5.177h-2.302v9.714h2.74v-5.176l4.362 5.176h2.302v-9.714h-2.74zm12.956 9.714h2.909l-4.377-9.714h-2.753l-4.363 9.714h2.852l.776-1.887h4.18l.776 1.887zm-4.137-3.913l1.271-3.108 1.271 3.108h-2.542zM47.914 18.393h4.902c3.436 0 5.791-1.965 5.791-5.095s-2.355-5.094-5.79-5.094h-4.903v10.189zm2.933-2.3v-5.59h1.85c1.763 0 2.948 1.034 2.948 2.795 0 1.762-1.185 2.795-2.947 2.795h-1.851zm9.303 2.3h2.933V8.203H60.15v10.19zm11.965-2.518a3.78 3.78 0 01-1.585.335c-1.747 0-2.932-1.194-2.932-2.912 0-1.76 1.185-2.91 2.962-2.91.992 0 1.807.363 2.518 1.135l1.866-1.66C73.922 8.655 72.352 8 70.412 8c-3.362 0-5.776 2.198-5.776 5.298s2.414 5.299 5.717 5.299c1.51 0 3.154-.451 4.354-1.296v-4.22h-2.592v2.794zm4.451 2.518h2.932V8.203h-2.932v10.19zm7.225 0h2.933v-7.904h3.17V8.204h-9.287v2.285h3.184v7.904zm14.435 0h3.051l-4.591-10.19h-2.889l-4.576 10.19h2.992l.814-1.98h4.384l.815 1.98zm-4.34-4.105l1.333-3.26 1.333 3.26h-2.666zm8.222 4.105h7.879v-2.285h-4.946V8.204h-2.933v10.189zM23.204 47.01c-.327 0-.577.223-.577.562 0 .24.125.421.321.497l-.262.931h.59l.34-.843c.136-.322.16-.433.16-.585 0-.334-.238-.562-.572-.562z" fill="#B53CEE"/></g><defs><clipPath id="clip0"><path fill="#fff" d="M0 0h112v39H0z"/></clipPath></defs></svg>