<svg width="17" height="18" fill="none" xmlns="http://www.w3.org/2000/svg"><path d="M8.525 13.922c.05.017.084.052.1.104a.177.177 0 01-.025.155l-2.075 2.152a3.961 3.961 0 01-1.15.83 3.709 3.709 0 01-1.325.363c-.45.034-.9 0-1.35-.104a2.738 2.738 0 01-1.225-.648c-.45-.363-.8-.804-1.05-1.322a3.845 3.845 0 01-.4-1.556 4.782 4.782 0 01.225-1.581c.167-.536.45-1.003.85-1.4L4.325 7.57a4.878 4.878 0 011.8-1.192 3.96 3.96 0 012.1-.208c.634.104 1.134.294 1.5.57.367.277.659.597.875.96.034.086.03.151-.012.194a.904.904 0 01-.138.117c-.05.035-.108.086-.175.156l-.175.181a.771.771 0 01-.6.285c-.233 0-.446-.1-.637-.298a2.027 2.027 0 00-.638-.454 1.636 1.636 0 00-.775-.13 3.141 3.141 0 00-.75.13c-.216.07-.441.225-.675.467l-3.7 3.837a2.068 2.068 0 00-.475.778c-.1.294-.133.588-.1.881.034.294.117.588.25.882.134.294.35.527.65.7.417.294.867.397 1.35.311a2.272 2.272 0 001.225-.622l1.6-1.634c.034-.051.084-.06.15-.025.5.224 1.017.38 1.55.466zM15.475.804c.45.363.8.795 1.05 1.296s.392 1.02.425 1.555a4.13 4.13 0 01-.225 1.608 3.583 3.583 0 01-.875 1.4l-3.225 3.344a4.61 4.61 0 01-1.8 1.167 4.42 4.42 0 01-2.125.207c-.633-.086-1.125-.276-1.475-.57a4.657 4.657 0 01-.875-.96c-.033-.068-.025-.129.025-.18l.45-.467a.887.887 0 01.625-.26c.234 0 .434.087.6.26a1.994 1.994 0 002.225.466c.25-.103.467-.259.65-.466l3.7-3.811c.217-.225.375-.493.475-.804.1-.311.134-.614.1-.908a2.334 2.334 0 00-.275-.855 1.971 1.971 0 00-.65-.7c-.4-.277-.841-.38-1.325-.311-.483.069-.9.285-1.25.648l-1.575 1.633c-.05.052-.1.06-.15.026a7.84 7.84 0 00-1.55-.492c-.066 0-.1-.035-.1-.104 0-.07.009-.112.025-.13l2.075-2.152a3.961 3.961 0 011.15-.83 4.144 4.144 0 011.3-.388 3.327 3.327 0 011.35.13c.467.138.884.354 1.25.648z" fill="#713DF2"/></svg>