<svg width="16" height="18" fill="none" xmlns="http://www.w3.org/2000/svg"><path d="M15.273 7.92h-1.546V2.88c0-1.59-1.302-2.88-2.909-2.88H5.182c-1.607 0-2.91 1.29-2.91 2.88v5.04H.728A.723.723 0 000 8.64v8.64c0 .398.325.72.727.72h14.546a.723.723 0 00.727-.72V8.64a.723.723 0 00-.727-.72zm-6.637 5.332v1.193c0 .099-.081.18-.181.18h-.91a.181.181 0 01-.181-.18v-1.193a1.07 1.07 0 01-.006-1.75 1.098 1.098 0 011.68.542 1.07 1.07 0 01-.402 1.208zm3.455-5.332H3.909V2.88c0-.695.57-1.26 1.273-1.26h5.636c.703 0 1.273.565 1.273 1.26v5.04z" fill="#713DF2"/></svg>